HIERARCHY
ROOT hip
{
  OFFSET 5.51535 103.731 -2.80141
  CHANNELS 6 Xposition Yposition Zposition Zrotation Xrotation Yrotation
  JOINT abdomen
  {
    OFFSET 0 -1.186 -1.5018
    CHANNELS 6 Xposition Yposition Zposition Zrotation Xrotation Yrotation
    JOINT abdomen2
    {
      OFFSET 0 9.964 0.2134
      CHANNELS 6 Xposition Yposition Zposition Zrotation Xrotation Yrotation
      JOINT chest
      {
        OFFSET 0 13.134 -3.2573
        CHANNELS 6 Xposition Yposition Zposition Zrotation Xrotation Yrotation
        JOINT neck
        {
          OFFSET 0 20.686 -1.6905
          CHANNELS 6 Xposition Yposition Zposition Zrotation Xrotation Yrotation
          JOINT head
          {
            OFFSET 0 7.23801 -0.1237
            CHANNELS 6 Xposition Yposition Zposition Zrotation Xrotation Yrotation
            End Site
            {
              OFFSET 0 0 0
            }
          }
        }
        JOINT lCollar
        {
          OFFSET 1.7069 20.075 5.0056
          CHANNELS 6 Xposition Yposition Zposition Zrotation Xrotation Yrotation
          JOINT lShldr
          {
            OFFSET 13.6458 -0.0470195 -4.849
            CHANNELS 6 Xposition Yposition Zposition Zrotation Xrotation Yrotation
            JOINT lForeArm
            {
              OFFSET 28.3255 -0.97589 2.2888
              CHANNELS 6 Xposition Yposition Zposition Zrotation Xrotation Yrotation
              JOINT lHand
              {
                OFFSET 22.1583 -0.529998 10.8316
                CHANNELS 6 Xposition Yposition Zposition Zrotation Xrotation Yrotation
                JOINT lThumb1
                {
                  OFFSET 0.786 0.111997 2.5817
                  CHANNELS 6 Xposition Yposition Zposition Zrotation Xrotation Yrotation
                  JOINT lThumb2
                  {
                    OFFSET 0.360097 -0.877999 4.2331
                    CHANNELS 6 Xposition Yposition Zposition Zrotation Xrotation Yrotation
                    JOINT lThumb2_End
                    {
                      OFFSET 1.8127 -1.21601 2.2227
                      CHANNELS 6 Xposition Yposition Zposition Zrotation Xrotation Yrotation
                      End Site
                      {
                        OFFSET 0.0180981 -0.012195 0.0222007
                      }
                    }
                  }
                }
                JOINT lCarpal1
                {
                  OFFSET 0.9571 1.114 1.7695
                  CHANNELS 6 Xposition Yposition Zposition Zrotation Xrotation Yrotation
                  JOINT lIndex1
                  {
                    OFFSET 4.12461 0.486992 4.1451
                    CHANNELS 6 Xposition Yposition Zposition Zrotation Xrotation Yrotation
                    JOINT lIndex2
                    {
                      OFFSET 3.4052 -1.45401 2.7682
                      CHANNELS 6 Xposition Yposition Zposition Zrotation Xrotation Yrotation
                      JOINT lIndex2_End
                      {
                        OFFSET 1.45309 -1.79499 1.2713
                        CHANNELS 6 Xposition Yposition Zposition Zrotation Xrotation Yrotation
                        End Site
                        {
                          OFFSET 0.0144979 -0.0179083 0.0126995
                        }
                      }
                    }
                  }
                  JOINT lMid1
                  {
                    OFFSET 5.6954 0.209987 2.1184
                    CHANNELS 6 Xposition Yposition Zposition Zrotation Xrotation Yrotation
                    JOINT lMid2
                    {
                      OFFSET 3.9766 -1.53999 2.3863
                      CHANNELS 6 Xposition Yposition Zposition Zrotation Xrotation Yrotation
                      JOINT lMid2_End
                      {
                        OFFSET 1.4042 -1.926 1.125
                        CHANNELS 6 Xposition Yposition Zposition Zrotation Xrotation Yrotation
                        End Site
                        {
                          OFFSET 0.013999 -0.0193044 0.011301
                        }
                      }
                    }
                  }
                }
                JOINT lCarpal2
                {
                  OFFSET 2.0956 0.66 -0.3894
                  CHANNELS 6 Xposition Yposition Zposition Zrotation Xrotation Yrotation
                  JOINT lRing1
                  {
                    OFFSET 5.0395 -0.090013 2.4971
                    CHANNELS 6 Xposition Yposition Zposition Zrotation Xrotation Yrotation
                    JOINT lRing2
                    {
                      OFFSET 3.7921 -1.55199 1.4806
                      CHANNELS 6 Xposition Yposition Zposition Zrotation Xrotation Yrotation
                      JOINT lRing2_End
                      {
                        OFFSET 1.4655 -1.808 0.9609
                        CHANNELS 6 Xposition Yposition Zposition Zrotation Xrotation Yrotation
                        End Site
                        {
                          OFFSET 0.0147015 -0.0181014 0.00959957
                        }
                      }
                    }
                  }
                  JOINT lPinky1
                  {
                    OFFSET 4.9141 -1.269 0.3591
                    CHANNELS 6 Xposition Yposition Zposition Zrotation Xrotation Yrotation
                    JOINT lPinky2
                    {
                      OFFSET 3.1477 -1.685 0.8462
                      CHANNELS 6 Xposition Yposition Zposition Zrotation Xrotation Yrotation
                      JOINT lPinky2_End
                      {
                        OFFSET 0.805498 -1.58501 0.795499
                        CHANNELS 6 Xposition Yposition Zposition Zrotation Xrotation Yrotation
                        End Site
                        {
                          OFFSET 0.00809703 -0.0157944 0.00799848
                        }
                      }
                    }
                  }
                }
              }
            }
          }
        }
        JOINT rCollar
        {
          OFFSET -1.7069 20.075 5.0056
          CHANNELS 6 Xposition Yposition Zposition Zrotation Xrotation Yrotation
          JOINT rShldr
          {
            OFFSET -13.6458 -0.0470107 -4.849
            CHANNELS 6 Xposition Yposition Zposition Zrotation Xrotation Yrotation
            JOINT rForeArm
            {
              OFFSET -28.3255 -0.975895 2.2888
              CHANNELS 6 Xposition Yposition Zposition Zrotation Xrotation Yrotation
              JOINT rHand
              {
                OFFSET -22.1583 -0.530007 10.8316
                CHANNELS 6 Xposition Yposition Zposition Zrotation Xrotation Yrotation
                JOINT rThumb1
                {
                  OFFSET -0.785997 0.112005 2.5817
                  CHANNELS 6 Xposition Yposition Zposition Zrotation Xrotation Yrotation
                  JOINT rThumb2
                  {
                    OFFSET -0.360106 -0.877994 4.2331
                    CHANNELS 6 Xposition Yposition Zposition Zrotation Xrotation Yrotation
                    JOINT rThumb2_End
                    {
                      OFFSET -1.8127 -1.216 2.2227
                      CHANNELS 6 Xposition Yposition Zposition Zrotation Xrotation Yrotation
                      End Site
                      {
                        OFFSET -0.0180972 -0.0121973 0.0222005
                      }
                    }
                  }
                }
                JOINT rCarpal1
                {
                  OFFSET -0.9571 1.114 1.7695
                  CHANNELS 6 Xposition Yposition Zposition Zrotation Xrotation Yrotation
                  JOINT rIndex1
                  {
                    OFFSET -4.1246 0.487011 4.1451
                    CHANNELS 6 Xposition Yposition Zposition Zrotation Xrotation Yrotation
                    JOINT rIndex2
                    {
                      OFFSET -3.4052 -1.45401 2.7682
                      CHANNELS 6 Xposition Yposition Zposition Zrotation Xrotation Yrotation
                      JOINT rIndex2_End
                      {
                        OFFSET -1.4531 -1.795 1.2713
                        CHANNELS 6 Xposition Yposition Zposition Zrotation Xrotation Yrotation
                        End Site
                        {
                          OFFSET -0.0145077 -0.0180048 0.0127017
                        }
                      }
                    }
                  }
                  JOINT rMid1
                  {
                    OFFSET -5.6954 0.210002 2.1184
                    CHANNELS 6 Xposition Yposition Zposition Zrotation Xrotation Yrotation
                    JOINT rMid2
                    {
                      OFFSET -3.9766 -1.54 2.3863
                      CHANNELS 6 Xposition Yposition Zposition Zrotation Xrotation Yrotation
                      JOINT rMid2_End
                      {
                        OFFSET -1.4042 -1.926 1.125
                        CHANNELS 6 Xposition Yposition Zposition Zrotation Xrotation Yrotation
                        End Site
                        {
                          OFFSET -0.0139948 -0.0192916 0.0112994
                        }
                      }
                    }
                  }
                }
                JOINT rCarpal2
                {
                  OFFSET -2.0956 0.66 -0.3894
                  CHANNELS 6 Xposition Yposition Zposition Zrotation Xrotation Yrotation
                  JOINT rRing1
                  {
                    OFFSET -5.03951 -0.0899879 2.4971
                    CHANNELS 6 Xposition Yposition Zposition Zrotation Xrotation Yrotation
                    JOINT rRing2
                    {
                      OFFSET -3.7921 -1.55201 1.4806
                      CHANNELS 6 Xposition Yposition Zposition Zrotation Xrotation Yrotation
                      JOINT rRing2_End
                      {
                        OFFSET -1.4655 -1.808 0.960901
                        CHANNELS 6 Xposition Yposition Zposition Zrotation Xrotation Yrotation
                        End Site
                        {
                          OFFSET -0.0146934 -0.0180999 0.00959832
                        }
                      }
                    }
                  }
                  JOINT rPinky1
                  {
                    OFFSET -4.91411 -1.26899 0.359202
                    CHANNELS 6 Xposition Yposition Zposition Zrotation Xrotation Yrotation
                    JOINT rPinky2
                    {
                      OFFSET -3.14769 -1.68501 0.846199
                      CHANNELS 6 Xposition Yposition Zposition Zrotation Xrotation Yrotation
                      JOINT rPinky2_End
                      {
                        OFFSET -0.805498 -1.585 0.7955
                        CHANNELS 6 Xposition Yposition Zposition Zrotation Xrotation Yrotation
                        End Site
                        {
                          OFFSET -0.00810035 -0.0158035 0.00800029
                        }
                      }
                    }
                  }
                }
              }
            }
          }
        }
      }
    }
  }
  JOINT lThigh
  {
    OFFSET 8.367 -8.2066 0.5982
    CHANNELS 6 Xposition Yposition Zposition Zrotation Xrotation Yrotation
    JOINT lShin
    {
      OFFSET 2.1923 -43.463 -0.4932
      CHANNELS 6 Xposition Yposition Zposition Zrotation Xrotation Yrotation
      JOINT lFoot
      {
        OFFSET 0.733301 -45.8593 -2.6451
        CHANNELS 6 Xposition Yposition Zposition Zrotation Xrotation Yrotation
        End Site
        {
          OFFSET 2.6618 -4.2699 12.3931
        }
      }
    }
  }
  JOINT rThigh
  {
    OFFSET -8.367 -8.2066 0.5982
    CHANNELS 6 Xposition Yposition Zposition Zrotation Xrotation Yrotation
    JOINT rShin
    {
      OFFSET -2.1923 -43.463 -0.4931
      CHANNELS 6 Xposition Yposition Zposition Zrotation Xrotation Yrotation
      JOINT rFoot
      {
        OFFSET -0.733299 -45.8593 -2.6451
        CHANNELS 6 Xposition Yposition Zposition Zrotation Xrotation Yrotation
        End Site
        {
          OFFSET -2.6618 -4.2699 12.3931
        }
      }
    }
  }
}
MOTION
Frames:	4
Frame Time:	0.0333333
-30.5519 17.8363 70.3931 10.1807 -64.7109 21.1565 4.35611e-007 -1.186 -1.5018 -0.117316 -7.04079 0.342204 -2.09571e-007 9.964 0.213401 -0.194108 -14.0822 0.677526 -4.85025e-007 13.134 -3.2573 -0.194107 -14.0822 0.677525 -5.37393e-005 20.6862 -1.69051 0.374123 -0.655527 -5.68349 3.02761e-006 7.23802 -0.1237 17.7696 4.87546 -1.5682 1.7069 20.075 5.00561 5.16432 -1.47316 -15.364 13.6458 -0.047013 -4.849 -57.9932 -3.09638 -55.9556 28.3255 -0.975876 2.28879 -24.1556 -24.1323 -76.2411 22.1583 -0.52999 10.8316 -3.81094 23.6751 -28.6989 0.786003 0.111997 2.5817 29.0016 36.8209 -34.7961 0.360098 -0.877997 4.2331 -6.33697 -0.11738 -11.5743 1.8127 -1.21601 2.2227 6.48488 1.4842 12.0602 0.9571 1.114 1.7695 6.36111e-015 0 -1.59028e-015 4.12461 0.486992 4.1451 -4.88734 4.53876 12.6178 3.4052 -1.45401 2.7682 -36.3636 10.0331 17.8992 1.4531 -1.79499 1.2713 -37.4307 10.1383 18.481 5.6954 0.209988 2.1184 -1.587 -0.577013 1.61797 3.9766 -1.53999 2.3863 -43.8285 12.1761 22.7531 1.4042 -1.926 1.125 -9.03146 4.06784 4.02301 2.0956 0.66 -0.3894 6.36111e-015 0 -1.59028e-015 5.0395 -0.0900129 2.4971 -8.44091 -1.9482 5.79523 3.7921 -1.55199 1.4806 -14.2679 6.48286 7.41465 1.4655 -1.808 0.960899 -15.7291 7.01806 8.23483 4.9141 -1.269 0.3591 10.4038 -12.5936 2.33173 3.1477 -1.685 0.846201 -18.2187 8.51737 9.60863 0.805498 -1.58501 0.7955 -8.80553 4.59364 4.39817 -1.7069 20.075 5.00561 -21.1026 -0.0895029 -2.50509 -13.6458 -0.0470131 -4.849 58.5517 -1.55589 77.1059 -28.3255 -0.975879 2.2888 -1.56362 -7.58465 33.5408 -22.1583 -0.530001 10.8316 5.69579 -3.98466 37.7384 -0.786001 0.112006 2.5817 -23.2934 46.7513 30.6779 -0.360104 -0.877994 4.2331 4.576 -3.14006 12.9017 -1.81269 -1.216 2.2227 -7.05392 9.98965 -27.8099 -0.9571 1.114 1.7695 -6.36111e-015 1.59028e-015 -1.59028e-015 -4.12461 0.48701 4.1451 22.4326 7.18757 -14.4624 -3.4052 -1.45401 2.7682 39.327 10.0708 -9.22203 -1.4531 -1.795 1.2713 40.1701 10.2034 -9.48225 -5.6954 0.210001 2.1184 6.18728 0.99226 -2.02836 -3.9766 -1.54 2.3863 51.3578 13.422 -13.763 -1.4042 -1.926 1.125 14.2807 5.03453 -2.58716 -2.0956 0.66 -0.3894 -6.36111e-015 1.59028e-015 -1.59028e-015 -5.03951 -0.0899874 2.4971 13.594 -0.619296 -5.16265 -3.7921 -1.55201 1.4806 20.0872 7.41466 -4.91539 -1.4655 -1.808 0.960902 21.6807 7.9092 -5.40321 -4.91411 -1.26899 0.359201 -10.8187 -10.1308 -6.16945 -3.1477 -1.68501 0.846199 20.7191 8.26829 -4.96131 -0.8055 -1.585 0.7955 10.5212 4.46527 -2.16974 8.367 -8.2066 0.598199 36.3666 -37.0071 15.5944 2.1923 -43.463 -0.493218 -0.0252752 22.9535 -0.372254 0.733318 -45.8593 -2.6451 -9.35821 13.8792 -14.9971 -8.367 -8.2066 0.598201 -26.742 -13.7656 -7.42167 -2.1923 -43.463 -0.493102 0.649386 -0.657979 4.4752 -0.733311 -45.8593 -2.64509 12.3685 17.8561 -2.22898 
-30.4961 17.8231 70.4051 10.348 -64.643 21.3266 2.58325e-007 -1.186 -1.5018 -0.140208 -7.05981 0.352036 -7.05739e-007 9.964 0.213404 -0.239063 -14.1203 0.694555 -1.85205e-006 13.134 -3.2573 -0.239056 -14.1203 0.694564 -1.08011e-005 20.686 -1.69042 0.298769 -0.467737 -5.78209 1.94282e-006 7.238 -0.1237 17.9047 4.77718 -1.56529 1.7069 20.075 5.0056 5.1621 -1.47315 -15.3285 13.6458 -0.0470114 -4.849 -57.909 -3.00167 -56.0551 28.3255 -0.975893 2.2888 -23.0296 -24.4205 -75.5939 22.1583 -0.529983 10.8316 -4.16981 22.704 -28.878 0.786003 0.111996 2.5817 29.0016 36.821 -34.7961 0.360096 -0.877999 4.2331 -6.33698 -0.117379 -11.5743 1.8127 -1.21601 2.2227 6.48488 1.48418 12.0602 0.9571 1.114 1.7695 -3.18055e-015 -2.38542e-015 -2.38542e-015 4.1246 0.486992 4.1451 -4.88733 4.53875 12.6178 3.4052 -1.45401 2.7682 -36.3636 10.033 17.8992 1.4531 -1.79499 1.2713 -37.4308 10.1383 18.481 5.6954 0.209988 2.1184 -1.58698 -0.577011 1.61795 3.9766 -1.53999 2.3863 -43.8285 12.1761 22.7531 1.4042 -1.926 1.125 -9.03146 4.06783 4.023 2.0956 0.66 -0.3894 -3.18055e-015 -2.38542e-015 -2.38542e-015 5.0395 -0.0900119 2.4971 -8.44087 -1.94819 5.79521 3.7921 -1.55199 1.4806 -14.2679 6.48282 7.41465 1.4655 -1.808 0.9609 -15.7291 7.01804 8.23483 4.9141 -1.269 0.3591 10.4038 -12.5936 2.3317 3.1477 -1.685 0.8462 -18.2187 8.51734 9.60864 0.805498 -1.58501 0.795501 -8.80678 4.59424 4.39884 -1.7069 20.075 5.0056 -21.1342 -0.0835414 -2.47422 -13.6458 -0.0470155 -4.849 58.442 -1.59157 77.15 -28.3255 -0.975877 2.2888 -1.92595 -7.23498 33.0945 -22.1583 -0.530008 10.8316 5.39133 -4.78379 38.2097 -0.786 0.112006 2.5817 -23.2934 46.7513 30.6779 -0.360105 -0.877995 4.2331 4.57609 -3.14012 12.9019 -1.81269 -1.216 2.2227 -7.05391 9.98964 -27.8099 -0.9571 1.114 1.7695 6.36111e-015 0 -1.59028e-015 -4.12461 0.487011 4.1451 22.4325 7.18758 -14.4624 -3.4052 -1.45401 2.7682 39.3269 10.0708 -9.22203 -1.4531 -1.795 1.2713 40.1701 10.2034 -9.48225 -5.6954 0.210001 2.1184 6.18725 0.99225 -2.02836 -3.9766 -1.54 2.3863 51.3578 13.422 -13.763 -1.4042 -1.926 1.125 14.2807 5.03453 -2.58715 -2.0956 0.66 -0.3894 6.36111e-015 0 -1.59028e-015 -5.03951 -0.0899875 2.4971 13.5939 -0.619299 -5.16264 -3.7921 -1.55201 1.4806 20.0871 7.41465 -4.91539 -1.4655 -1.808 0.960902 21.6809 7.90854 -5.40293 -4.91411 -1.26899 0.359203 -10.8188 -10.1308 -6.16945 -3.1477 -1.68501 0.846198 20.7191 8.2683 -4.96128 -0.8055 -1.585 0.7955 10.5212 4.46526 -2.16974 8.36702 -8.2066 0.598197 36.3021 -37.1579 15.6956 2.19231 -43.463 -0.493211 -0.0198161 23.1151 -0.326159 0.733309 -45.8593 -2.6451 -9.15112 13.7195 -15.1465 -8.36701 -8.20661 0.598204 -26.8721 -13.8328 -7.46652 -2.1923 -43.463 -0.493111 0.655304 -0.611869 4.46163 -0.7333 -45.8593 -2.6451 12.4542 17.9476 -2.41134 
-30.5511 17.834 70.4426 10.1856 -64.7625 21.2918 5.47751e-007 -1.186 -1.5018 -0.110713 -7.00645 0.3503 1.66049e-007 9.964 0.213401 -0.179922 -14.0136 0.694756 -2.32337e-006 13.134 -3.2573 -0.179922 -14.0135 0.694751 -3.56185e-006 20.6861 -1.6905 0.315614 -0.942093 -5.69922 6.24665e-006 7.23802 -0.123697 17.3828 5.12068 -1.84645 1.7069 20.075 5.0056 5.35225 -1.47764 -15.8626 13.6458 -0.0470109 -4.849 -58.1252 -3.0826 -55.9623 28.3255 -0.97588 2.2888 -24.1177 -24.7466 -76.5858 22.1583 -0.529991 10.8316 -4.10639 23.9329 -28.521 0.786003 0.111997 2.5817 29.0016 36.821 -34.7961 0.360096 -0.877998 4.2331 -6.33698 -0.117403 -11.5743 1.8127 -1.21601 2.2227 6.48487 1.48418 12.0602 0.9571 1.114 1.7695 3.18055e-015 2.38542e-015 2.38542e-015 4.1246 0.486992 4.1451 -4.88734 4.53874 12.6178 3.4052 -1.45401 2.7682 -36.3636 10.033 17.8992 1.4531 -1.79499 1.2713 -37.4308 10.1383 18.481 5.6954 0.209987 2.1184 -1.58702 -0.577016 1.61796 3.9766 -1.53999 2.3863 -43.8285 12.1761 22.7531 1.4042 -1.926 1.125 -9.03147 4.06782 4.02301 2.0956 0.66 -0.3894 3.18055e-015 2.38542e-015 2.38542e-015 5.0395 -0.0900116 2.4971 -8.44091 -1.94821 5.79523 3.7921 -1.55199 1.4806 -14.2679 6.48283 7.41466 1.4655 -1.808 0.960901 -15.7291 7.01804 8.23484 4.9141 -1.269 0.359099 10.4038 -12.5936 2.33173 3.1477 -1.685 0.846201 -18.2187 8.51732 9.60865 0.805498 -1.58501 0.795501 -8.80803 4.59488 4.39949 -1.7069 20.075 5.0056 -20.9685 -0.104959 -1.7616 -13.6458 -0.0470131 -4.849 58.2691 -2.14462 76.7611 -28.3255 -0.975884 2.2888 -1.87724 -7.362 33.5373 -22.1583 -0.530007 10.8316 4.65096 -4.87478 37.9174 -0.785999 0.112006 2.5817 -23.2934 46.7513 30.6779 -0.360104 -0.877993 4.2331 4.57617 -3.14015 12.9022 -1.81269 -1.216 2.2227 -7.05392 9.98966 -27.8099 -0.9571 1.114 1.7695 6.36111e-015 1.59028e-015 -6.36111e-015 -4.12461 0.487011 4.1451 22.4326 7.18758 -14.4624 -3.4052 -1.45401 2.7682 39.327 10.0708 -9.22204 -1.4531 -1.795 1.2713 40.1701 10.2034 -9.48224 -5.6954 0.210001 2.1184 6.18727 0.992259 -2.02836 -3.9766 -1.54 2.3863 51.3578 13.422 -13.763 -1.4042 -1.926 1.125 14.2807 5.03453 -2.58715 -2.0956 0.66 -0.3894 6.36111e-015 1.59028e-015 -6.36111e-015 -5.03951 -0.0899865 2.49711 13.5939 -0.619309 -5.16264 -3.7921 -1.55201 1.4806 20.0872 7.41465 -4.91539 -1.4655 -1.808 0.960901 21.6811 7.90792 -5.40267 -4.91411 -1.26899 0.359202 -10.8187 -10.1308 -6.16945 -3.1477 -1.68501 0.846199 20.7191 8.26831 -4.96129 -0.805501 -1.585 0.795498 10.5212 4.46526 -2.16973 8.367 -8.2066 0.5982 36.4326 -37.1958 15.6937 2.1923 -43.463 -0.493199 -0.0357809 23.2005 -0.377671 0.733302 -45.8593 -2.64511 -9.10244 13.9926 -15.1801 -8.367 -8.20659 0.598199 -26.8255 -13.6219 -7.68597 -2.1923 -43.463 -0.493095 0.638572 -0.676458 4.45767 -0.7333 -45.8593 -2.6451 12.4267 17.9667 -2.30253 
-30.5749 17.8454 70.477 10.2292 -64.6772 21.2021 4.6603e-008 -1.186 -1.5018 -0.0978443 -7.03524 0.332013 -2.59314e-007 9.964 0.2134 -0.156035 -14.071 0.659369 -1.39675e-006 13.134 -3.2573 -0.156038 -14.0709 0.659362 5.29901e-007 20.686 -1.69049 0.321836 -0.899573 -5.49172 -1.55624e-007 7.23802 -0.123701 16.9854 5.054 -1.85719 1.7069 20.075 5.0056 5.46672 -1.48896 -15.7595 13.6458 -0.0470146 -4.849 -58.4385 -2.90316 -55.8419 28.3255 -0.975887 2.2888 -24.7861 -24.9007 -77.2388 22.1583 -0.52999 10.8316 -4.22022 24.818 -28.1792 0.786003 0.111996 2.5817 29.0016 36.821 -34.7961 0.360095 -0.878 4.2331 -6.337 -0.117408 -11.5743 1.8127 -1.21601 2.2227 6.48485 1.48413 12.0602 0.9571 1.114 1.7695 3.18055e-015 -4.77083e-015 -3.18055e-015 4.1246 0.486993 4.1451 -4.88738 4.53867 12.6178 3.4052 -1.45401 2.7682 -36.3636 10.033 17.8992 1.4531 -1.79499 1.2713 -37.4308 10.1382 18.481 5.6954 0.209987 2.1184 -1.58703 -0.577084 1.61796 3.9766 -1.53999 2.3863 -43.8285 12.1761 22.7531 1.4042 -1.926 1.125 -9.03146 4.06782 4.02301 2.0956 0.66 -0.3894 3.18055e-015 -4.77083e-015 -3.18055e-015 5.0395 -0.0900123 2.4971 -8.44091 -1.94824 5.79522 3.7921 -1.55199 1.4806 -14.2679 6.48274 7.41468 1.4655 -1.808 0.9609 -15.7291 7.01802 8.23484 4.9141 -1.269 0.3591 10.4038 -12.5937 2.33174 3.1477 -1.685 0.846202 -18.2187 8.51731 9.60864 0.805499 -1.58501 0.7955 -8.80929 4.59547 4.40016 -1.7069 20.075 5.0056 -20.7477 -0.120059 -0.881265 -13.6458 -0.0470135 -4.849 58.089 -2.56524 76.4458 -28.3255 -0.975881 2.28879 -1.86708 -7.2058 33.8492 -22.1583 -0.530004 10.8316 3.87184 -5.31896 37.789 -0.786001 0.112004 2.5817 -23.2934 46.7513 30.678 -0.360106 -0.877995 4.2331 4.57625 -3.1402 12.9024 -1.81269 -1.216 2.2227 -7.05393 9.98967 -27.8099 -0.9571 1.114 1.7695 -6.36111e-015 0 -0 -4.12461 0.487013 4.1451 22.4325 7.18761 -14.4624 -3.4052 -1.45401 2.7682 39.327 10.0708 -9.22204 -1.4531 -1.795 1.2713 40.1701 10.2034 -9.48225 -5.6954 0.210002 2.1184 6.18726 0.992288 -2.02837 -3.9766 -1.54 2.3863 51.3578 13.422 -13.763 -1.4042 -1.926 1.125 14.2807 5.03455 -2.58714 -2.0956 0.66 -0.3894 -6.36111e-015 0 -0 -5.03951 -0.0899877 2.4971 13.5939 -0.619272 -5.16264 -3.7921 -1.55201 1.4806 20.0872 7.41466 -4.91539 -1.4655 -1.808 0.960901 21.6813 7.9073 -5.40241 -4.91411 -1.26899 0.359201 -10.8187 -10.1308 -6.16944 -3.1477 -1.68501 0.8462 20.7191 8.26832 -4.9613 -0.805499 -1.585 0.7955 10.5212 4.46526 -2.16974 8.367 -8.2066 0.5982 36.4628 -37.1083 15.719 2.19231 -43.463 -0.49321 -0.0461798 23.1072 -0.435018 0.733317 -45.8593 -2.64509 -9.30899 14.0779 -14.8662 -8.367 -8.2066 0.5982 -26.9776 -13.676 -7.7721 -2.19231 -43.463 -0.493091 0.61996 -0.756618 4.4622 -0.733299 -45.8593 -2.64511 12.2893 18.0619 -1.98146 
